<svg width="105" height="40" viewBox="0 0 105 40" version="1.1" xmlns="http://www.w3.org/2000/svg" xmlns:xlink="http://www.w3.org/1999/xlink">
	<title>Logo</title>
	<desc>Created using Figma</desc>
	<g id="Canvas" transform="translate(680 486)">
		<g id="Logo">
			<g id="Group">
				<g id="Group">
					<g id="Vector">
						<use xlink:href="#path0_fill" transform="translate(-680 -486)" fill="#FFFFFF"/>
					</g>
				</g>
			</g>
			<g id="ARINKA">
				<use xlink:href="#path1_fill" transform="translate(-631 -474)" fill="#FFFFFF"/>
			</g>
		</g>
	</g>
	<defs>
		<path id="path0_fill" d="M 34.3849 21.9004L 21.8163 13.4093L 22.4048 5.33848C 22.615 2.43805 20.3451 0 17.4446 0C 14.5442 0 12.3163 2.43805 12.5265 5.33848L 13.115 13.4093L 0.504423 21.9424C 0.210176 22.1526 0 22.4889 0 22.8672L 0 25.1791C 0 25.9358 0.7146 26.4822 1.47124 26.3141L 6.4314 25.011L 6.4314 26.3982C 6.4314 26.7765 6.72565 27.0707 7.10396 27.0707L 8.82741 27.0707C 9.20573 27.0707 9.49998 26.7765 9.49998 26.3982L 9.49998 24.1703L 13.8716 23.0353L 14.6283 33.376L 10.0885 35.4778C 9.79422 35.6039 9.62608 35.8981 9.62608 36.1924L 9.62608 39.2189C 9.62608 39.7233 10.1305 40.1017 10.6349 39.9756L 17.4446 37.9579L 24.2964 39.8915C 24.8008 40.0176 25.3052 39.6393 25.3052 39.1349L 25.3052 36.1083C 25.3052 35.8141 25.1371 35.5198 24.8429 35.3937L 20.3451 33.334L 21.1017 22.9933L 25.4313 24.1703L 25.4313 26.3561C 25.4313 26.7344 25.7256 27.0287 26.1039 27.0287L 27.8274 27.0287C 28.2057 27.0287 28.4999 26.7344 28.4999 26.3561L 28.4999 24.969L 33.4181 26.3141C 34.1327 26.5243 34.8893 25.9358 34.8893 25.1791L 34.8893 22.8672C 34.8893 22.4889 34.6791 22.1526 34.3849 21.9004Z"/>
		<path id="path1_fill" d="M 3.71 5.48L 0.14 15L 2.674 15L 3.332 13.124L 6.622 13.124L 7.308 15.14L 9.814 14.888L 6.258 5.48L 3.71 5.48ZM 5.894 11.122L 4.032 11.122L 4.942 8.532L 5.894 11.122ZM 11.0731 15L 13.6211 15L 13.6211 12.004L 15.3151 12.004L 16.8551 15L 19.8091 15L 17.7091 11.248C 18.1105 10.9773 18.4231 10.632 18.6471 10.212C 18.8805 9.78267 18.9971 9.288 18.9971 8.728C 18.9971 7.64533 18.6285 6.83333 17.8911 6.292C 17.1538 5.75067 16.2158 5.48 15.0771 5.48L 11.0731 5.48L 11.0731 15ZM 14.9931 7.482C 15.4318 7.482 15.7678 7.58933 16.0011 7.804C 16.2438 8.00933 16.3651 8.31733 16.3651 8.728C 16.3651 9.10133 16.2391 9.40933 15.9871 9.652C 15.7351 9.88533 15.4131 10.002 15.0211 10.002L 13.6211 10.002L 13.6211 7.482L 14.9931 7.482ZM 23.6153 15L 23.6153 5.48L 21.0673 5.48L 21.0673 15L 23.6153 15ZM 28.4004 15L 28.4004 9.988L 32.0544 15L 34.4344 15L 34.4344 5.48L 31.8864 5.48L 31.8864 10.646L 28.2184 5.48L 25.8524 5.48L 25.8524 15L 28.4004 15ZM 42.4065 15L 39.9705 11.444L 39.2285 12.144L 39.2285 15L 36.6805 15L 36.6805 5.48L 39.2285 5.48L 39.2285 8.784L 43.0505 5.27L 45.0245 6.698L 41.7905 9.722L 45.6405 15L 42.4065 15ZM 49.4971 5.48L 45.9271 15L 48.4611 15L 49.1191 13.124L 52.4091 13.124L 53.0951 15.14L 55.6011 14.888L 52.0451 5.48L 49.4971 5.48ZM 51.6811 11.122L 49.8191 11.122L 50.7291 8.532L 51.6811 11.122Z"/>
	</defs>
</svg>